<?xml version="1.0" encoding="UTF-8"?>
<svg xmlns="http://www.w3.org/2000/svg" xmlns:xlink="http://www.w3.org/1999/xlink" width="40px" height="40px" viewBox="0 0 40 40" version="1.1">
<g id="surface1">
<path style=" stroke:none;fill-rule:nonzero;fill:rgb(0%,0%,0%);fill-opacity:1;" d="M 18.789062 0.046875 C 18.664062 0.0625 18.273438 0.117188 17.929688 0.164062 C 11.914062 0.945312 6.773438 5.515625 5.273438 11.40625 C 4.21875 15.5625 4.929688 20.015625 7.203125 23.492188 C 7.429688 23.835938 10.226562 27.632812 13.414062 31.929688 C 19.523438 40.15625 19.398438 40 20 40 C 20.601562 40 20.476562 40.15625 26.585938 31.929688 C 29.773438 27.632812 32.570312 23.835938 32.796875 23.492188 C 34.429688 21 35.34375 17.679688 35.210938 14.6875 C 35.03125 10.734375 33.507812 7.257812 30.742188 4.492188 C 28.421875 2.164062 25.65625 0.75 22.34375 0.195312 C 21.632812 0.078125 19.28125 -0.0234375 18.789062 0.046875 Z M 21.257812 2.429688 C 24.28125 2.734375 26.953125 4 29.09375 6.140625 C 33.28125 10.328125 34.078125 16.71875 31.054688 21.835938 C 30.585938 22.632812 20.117188 36.757812 20 36.757812 C 19.882812 36.757812 9.414062 22.632812 8.945312 21.835938 C 7.039062 18.617188 6.601562 14.789062 7.742188 11.304688 C 8.398438 9.296875 9.421875 7.625 10.90625 6.140625 C 13.664062 3.382812 17.421875 2.039062 21.257812 2.429688 Z M 21.257812 2.429688 "/>
<path style=" stroke:none;fill-rule:nonzero;fill:rgb(0%,0%,0%);fill-opacity:1;" d="M 20.828125 8.242188 C 17.820312 9 16 9.492188 15.875 9.585938 C 15.765625 9.671875 15.601562 9.835938 15.515625 9.953125 C 15.359375 10.164062 15.351562 10.273438 15.328125 13.375 L 15.304688 16.578125 L 15.054688 16.53125 C 12.929688 16.078125 11.03125 17.328125 10.6875 19.40625 C 10.3125 21.664062 12.398438 23.75 14.65625 23.375 C 15.953125 23.15625 16.929688 22.367188 17.4375 21.101562 C 17.617188 20.671875 17.617188 20.617188 17.65625 16.0625 L 17.695312 11.453125 L 21.195312 10.578125 L 24.6875 9.703125 L 24.6875 14.234375 L 24.4375 14.1875 C 22.304688 13.734375 20.40625 14.984375 20.0625 17.0625 C 19.757812 18.921875 21.085938 20.710938 23 21.03125 C 24.804688 21.328125 26.601562 20.046875 26.953125 18.210938 C 27 17.953125 27.03125 15.890625 27.03125 12.875 C 27.03125 8.109375 27.023438 7.953125 26.875 7.65625 C 26.695312 7.296875 26.242188 7.03125 25.84375 7.039062 C 25.703125 7.039062 23.445312 7.585938 20.828125 8.242188 Z M 24.0625 16.5625 C 24.414062 16.742188 24.6875 17.1875 24.6875 17.578125 C 24.6875 17.710938 24.617188 17.960938 24.53125 18.125 C 24.351562 18.476562 23.90625 18.75 23.515625 18.75 C 23.125 18.75 22.679688 18.476562 22.5 18.125 C 22.304688 17.734375 22.304688 17.421875 22.5 17.03125 C 22.789062 16.460938 23.46875 16.257812 24.0625 16.5625 Z M 14.6875 18.90625 C 15.039062 19.085938 15.3125 19.53125 15.3125 19.921875 C 15.3125 20.515625 14.734375 21.09375 14.140625 21.09375 C 13.75 21.09375 13.304688 20.820312 13.125 20.46875 C 12.929688 20.078125 12.929688 19.765625 13.125 19.375 C 13.414062 18.804688 14.09375 18.601562 14.6875 18.90625 Z M 14.6875 18.90625 "/>
</g>
</svg>
